<svg width="64" height="64" viewBox="0 0 64 64" fill="none" xmlns="http://www.w3.org/2000/svg">
<path d="M21.6 56.6L2 58.2L8.1 4.99999L27.1 3.79999L21.6 56.6Z" fill="#DFE9EF"/>
<path d="M43.4 62L21.6 56.6L27.1 3.79999L40.9 9.79999L43.4 62Z" fill="#BBC3C7"/>
<path d="M62 55.2L43.4 62L40.9 9.8L55.9 2L62 55.2Z" fill="#DFE9EF"/>
<path d="M22.1 52.1L6.79999 53.3L11.5 8.50001L26.7 7.60001L22.1 52.1Z" fill="#5DF6FF"/>
<path d="M43.2 58L22.1 52.1L26.7 7.60001L41.1 13.6L43.2 58Z" fill="#00C0CF"/>
<path d="M57.9 52.5L43.2 58L41.1 13.6L53 7.89999L57.9 52.5Z" fill="#5DF6FF"/>
<g opacity="0.7">
<path opacity="0.7" d="M21.6 36C21.3 36.1 21 36.3 20.8 36.5L20.9 36.6C19 40.1 22 41.3 22 41.3C20.8 47.4 23.3 49.4 23.3 49.4C22.7 44.8 26.3 41.8 26.3 41.8C27.3 37.1 23 36.2 21.6 36Z" fill="#F361F5"/>
<path opacity="0.7" d="M20.4 35.6C18.6 34.4 18.6 32.5 18.6 32.5C21.6 32.5 24.9 28.1 24.9 28.1C22.7 21.1 21.8 27 21.8 27C18.6 23.6 22.7 22 22.7 22C20.2 21 19.1 18.2 19.1 18.2C19 20 18.2 19.9 18.2 19.9C12.5 16.8 11.5 21.8 11.5 21.8C12.4 24.5 10.5 24.8 10.5 24.8C12.4 25.1 13.4 22.7 13.4 22.7C17.3 24.5 15.2 31.1 15.2 31.1C16.7 31.9 17.1 34.7 17.1 34.7C18.2 35 19.2 35.6 20 36.1C20.1 35.8 20.2 35.7 20.4 35.6Z" fill="#EDBA53"/>
<path opacity="0.7" d="M26.4 16.1C26.4 16.1 24.7 15 21.9 16.7C21.9 16.7 21.2 23 26.4 16.1Z" fill="#EEF8FB"/>
<path opacity="0.7" d="M30.6 17.5C28.4 13.9 24.8 18.8 24.8 18.8C26.1 19.8 26.2 20.7 26 21.5C25.1 24.5 26.3 25.4 26.3 25.4C27 22.9 29.4 22.5 29.4 22.5C29.1 20.2 30.6 17.5 30.6 17.5Z" fill="#5F5CFF"/>
<path opacity="0.7" d="M36.7 33.7C36.5 33.8 36.3 33.8 36.1 33.7C35.6 33.2 35.3 32.6 35 32C34.9 31.9 34.9 31.8 34.9 31.7C33.2 31.1 29.9 30.5 29.4 35.1C29.4 35.1 30 38.2 32.1 36.6C32.1 36.6 34.4 37 33.5 41.1C33.5 41.1 33.9 44.3 35.9 44C35.9 44 36.4 39.4 39 35.8C38.9 35.9 37.9 36.9 36.7 33.7Z" fill="#FF7033"/>
<path opacity="0.7" d="M53.3 18.1C53.3 18.1 48.4 19.8 43 19.3C43 19.3 43.5 17.7 41.6 17.5C41.6 17.5 39.1 20.5 40.2 22.2C40.2 22.2 39.7 25.2 39.1 20.8C39.1 20.8 38.1 23.4 36.6 22.8C36.6 22.8 36.2 25.4 35.3 23.7C35.3 23.7 36 24 36.2 23.2C36.2 23.2 34.1 21.1 32.9 24.3C32.9 24.3 31.9 24.7 32.3 26.1C32.3 26.1 33 24.9 33.4 26.7C33.4 26.7 33.8 26.4 33.9 24.1C33.9 24.1 34.9 23.6 34.1 25.5C34.1 25.5 36.3 25.5 32.9 27.4C32.9 27.4 32.7 27.4 32.6 26.7C32.6 26.7 32.1 28.4 31 29C31 29 31.3 29.7 30.5 30C30.5 30 30.1 31.1 31.1 31.1C31.1 31.1 32 28.6 33.7 30.6C33.7 30.6 34 30.5 33.5 29.5C33.5 29.5 34.4 29.8 34.7 31.1C34.7 31.1 35.2 31 35.3 29.9C35.3 29.9 36 28.4 37.1 30.2C37.1 30.2 35.6 29.8 35.2 31.2C35.2 31.2 35.9 30.9 36.3 31.3C36.3 31.3 36.3 32 35.9 32.2C36.1 32.5 36.3 32.9 36.6 33.1C36.8 33.3 36.8 33.5 36.7 33.7C37.5 35 38.9 36.6 40 34C40 34 38.6 34.7 38.2 32.7C38.2 32.7 41.7 33.1 42.6 36.6C42.6 36.6 43.6 35.9 43.9 33.6C43.9 33.6 45.1 33.7 46.5 36.6C46.5 36.6 47.1 36.5 46.8 34.6C46.8 34.6 49.1 33.7 47.8 30C47.8 30 49.7 32.5 49.1 29.3C49.1 29.3 51.2 26.9 48.7 25.3C48.7 25.3 48.8 23.5 50.3 23.8C50.3 23.8 51.8 20.1 51.1 24.5C51.1 24.5 51.1 25.4 52.1 26.3C52.1 26.3 52.5 24.9 51.8 23.3C52 23.1 53.5 20.4 53.3 18.1Z" fill="#6C732D"/>
<g opacity="0.7">
<path opacity="0.7" d="M31.9 27.8C32.3 26.9 31 26 31 26C31.2 28 31.5 28.6 31.9 27.8Z" fill="#F361F5"/>
<path opacity="0.7" d="M30.3 27.9C30.3 27.9 30.9 27.8 30.8 27.1C30.8 27.1 30.3 27.1 30.3 27.9Z" fill="#F361F5"/>
<path opacity="0.7" d="M30.1 23.8C30.1 23.8 28.5 23.8 29.1 24.6C29.6 25.3 30.1 23.8 30.1 23.8Z" fill="#F361F5"/>
</g>
<path opacity="0.7" d="M38.2 42.5C38.2 42.5 38.7 41.6 38.7 40.1C38.7 40.1 37.1 41.8 38.2 42.5Z" fill="#EDFF54"/>
<path opacity="0.7" d="M48.4 36.6C48.4 36.6 47.3 37.6 47.5 38.5C47.7 39.4 48.7 38.3 48.4 36.6Z" fill="#EEF8FB"/>
<path opacity="0.7" d="M53 39.8C53.5 39 50.3 38 50.3 38C50.9 38.8 52.5 40.5 53 39.8Z" fill="#EDFF54"/>
<path opacity="0.7" d="M49.3 39.9C50.1 38.7 47 39.3 47 39.3C47 39.3 49 40.4 49.3 39.9Z" fill="#F361F5"/>
<g opacity="0.7">
<path opacity="0.7" d="M50.5 40.2C50.5 40.2 49.9 41.5 47.6 42C47.6 42 48.1 43 47.6 45C47.6 45 49.9 42.3 51.2 46.2C51.2 46.2 52.3 46.8 53.1 43.2C53.1 43.2 52.1 41.9 51.8 40.1C51.9 40.1 51.6 42.4 50.5 40.2Z" fill="#FF3333"/>
<path opacity="0.7" d="M49.5 31.5C49.5 31.5 52.1 30.6 51 28.5C51.1 28.4 51.3 28.3 51.3 28.3C50.2 26.6 50.6 29 50.6 29C50.7 28.8 50.8 28.7 50.8 28.6C50.8 29.4 50.7 30.5 49.5 31.5Z" fill="#FF3333"/>
<path opacity="0.7" d="M22.6 23.5C22.6 23.5 24.5 26.2 24.7 23.2C24.8 22.5 24.5 22.4 24.2 22.4C24.1 20.4 22.7 19.8 22.7 19.8C21.8 20.3 21.9 21 21.9 21C22.7 21.1 23.2 22.1 23.5 22.9C23.4 23.2 23.1 23.5 22.6 23.5Z" fill="#FF3333"/>
</g>
<path opacity="0.7" d="M31.3 15.9C31.9 14.7 30.1 13.3 30.1 13.3C30.3 16.2 30.7 17.1 31.3 15.9Z" fill="#EDFF54"/>
<path opacity="0.7" d="M29.8 14.8C29.8 14.8 29.1 14.9 29.1 16C29.1 16 30 15.9 29.8 14.8Z" fill="white"/>
</g>
</svg>