<svg width="67" height="56" viewBox="0 0 67 56" fill="none" xmlns="http://www.w3.org/2000/svg">
<path fill-rule="evenodd" clip-rule="evenodd" d="M13.4 49.56C12.1069 49.56 11.055 48.6808 11.055 47.6V23.52C11.055 22.4392 12.1069 21.56 13.4 21.56H53.6C54.8931 21.56 55.945 22.4392 55.945 23.52V47.6C55.945 48.6808 54.8931 49.56 53.6 49.56H13.4Z" fill="#E64C3C"/>
<path d="M53.6 22.4C54.339 22.4 54.94 22.9023 54.94 23.52V47.6C54.94 48.2177 54.339 48.72 53.6 48.72H13.4C12.661 48.72 12.06 48.2177 12.06 47.6V23.52C12.06 22.9023 12.661 22.4 13.4 22.4H53.6ZM53.6 20.72H13.4C12.5115 20.72 11.6594 21.015 11.0312 21.5401C10.4029 22.0652 10.05 22.7774 10.05 23.52V47.6C10.05 48.3426 10.4029 49.0548 11.0312 49.5799C11.6594 50.105 12.5115 50.4 13.4 50.4H53.6C54.4885 50.4 55.3406 50.105 55.9688 49.5799C56.5971 49.0548 56.95 48.3426 56.95 47.6V23.52C56.95 22.7774 56.5971 22.0652 55.9688 21.5401C55.3406 21.015 54.4885 20.72 53.6 20.72Z" fill="#C03A2B"/>
<path fill-rule="evenodd" clip-rule="evenodd" d="M15.41 50.3994C14.7474 50.3994 14.0997 50.5637 13.5488 50.8713C12.9979 51.179 12.5686 51.6163 12.315 52.1279C12.0614 52.6396 11.9951 53.2026 12.1244 53.7457C12.2536 54.2888 12.5727 54.7878 13.0412 55.1793C13.5097 55.5709 14.1066 55.8376 14.7564 55.9456C15.4063 56.0537 16.0799 55.9982 16.692 55.7863C17.3041 55.5744 17.8273 55.2155 18.1954 54.755C18.5635 54.2946 18.76 53.7532 18.76 53.1994V50.3994H15.41Z" fill="#2C3E50"/>
<path d="M15.41 54.88C16.5201 54.88 17.42 54.1278 17.42 53.2C17.42 52.2722 16.5201 51.52 15.41 51.52C14.2999 51.52 13.4 52.2722 13.4 53.2C13.4 54.1278 14.2999 54.88 15.41 54.88Z" fill="#495E74"/>
<path fill-rule="evenodd" clip-rule="evenodd" d="M51.59 50.3994C52.2526 50.3994 52.9003 50.5637 53.4512 50.8713C54.0021 51.179 54.4314 51.6163 54.685 52.1279C54.9386 52.6396 55.0049 53.2026 54.8756 53.7457C54.7464 54.2888 54.4273 54.7878 53.9588 55.1793C53.4903 55.5709 52.8934 55.8376 52.2436 55.9456C51.5937 56.0537 50.9201 55.9982 50.308 55.7863C49.6959 55.5744 49.1727 55.2155 48.8046 54.755C48.4365 54.2946 48.24 53.7532 48.24 53.1994V50.3994H51.59Z" fill="#2C3E50"/>
<path d="M51.59 54.88C52.7001 54.88 53.6 54.1278 53.6 53.2C53.6 52.2722 52.7001 51.52 51.59 51.52C50.4799 51.52 49.58 52.2722 49.58 53.2C49.58 54.1278 50.4799 54.88 51.59 54.88Z" fill="#495E74"/>
<path fill-rule="evenodd" clip-rule="evenodd" d="M42.21 20.72V3.92C42.21 3.47444 41.9982 3.04712 41.6213 2.73206C41.2443 2.417 40.7331 2.24 40.2 2.24H26.8C26.2669 2.24 25.7557 2.417 25.3787 2.73206C25.0018 3.04712 24.79 3.47444 24.79 3.92V20.72H22.11V2.8C22.11 2.05739 22.4629 1.3452 23.0912 0.820101C23.7194 0.294999 24.5715 0 25.46 0L41.54 0C42.4285 0 43.2806 0.294999 43.9088 0.820101C44.5371 1.3452 44.89 2.05739 44.89 2.8V20.72H42.21Z" fill="#495E74"/>
<path fill-rule="evenodd" clip-rule="evenodd" d="M44.8619 3.36V2.56816C44.7191 1.13232 43.2954 0 41.54 0H25.46C24.5715 0 23.7194 0.294999 23.0912 0.820101C22.4629 1.3452 22.11 2.05739 22.11 2.8V5.04C22.11 5.33704 22.2512 5.62192 22.5025 5.83196C22.7538 6.042 23.0946 6.16 23.45 6.16C23.8054 6.16 24.1462 6.042 24.3975 5.83196C24.6488 5.62192 24.79 5.33704 24.79 5.04V3.92C24.79 3.47444 25.0018 3.04712 25.3787 2.73206C25.7557 2.417 26.2669 2.24 26.8 2.24H40.2C40.7331 2.24 41.2443 2.417 41.6213 2.73206C41.9982 3.04712 42.21 3.47444 42.21 3.92V5.04C42.21 5.33704 42.3512 5.62192 42.6025 5.83196C42.8538 6.042 43.1946 6.16 43.55 6.16C43.9054 6.16 44.2462 6.042 44.4975 5.83196C44.7488 5.62192 44.89 5.33704 44.89 5.04V3.36H44.8619Z" fill="#2C3E50"/>
<path fill-rule="evenodd" clip-rule="evenodd" d="M42.2381 20.72H47.6102L51.59 24.0464L39.4838 34.165L32.8179 28.5936L42.2381 20.72Z" fill="#EBECED"/>
<path fill-rule="evenodd" clip-rule="evenodd" d="M22.11 20.72H24.79V47.04H22.11V20.72ZM42.21 20.72H44.89V47.04H42.21V20.72Z" fill="#C03A2B"/>
<path fill-rule="evenodd" clip-rule="evenodd" d="M24.79 34.16H22.11C21.7546 34.16 21.4138 34.278 21.1625 34.488C20.9112 34.6981 20.77 34.983 20.77 35.28V37.52C20.77 37.817 20.9112 38.1019 21.1625 38.312C21.4138 38.522 21.7546 38.64 22.11 38.64H24.79C25.1454 38.64 25.4862 38.522 25.7375 38.312C25.9888 38.1019 26.13 37.817 26.13 37.52V35.28C26.13 34.983 25.9888 34.6981 25.7375 34.488C25.4862 34.278 25.1454 34.16 24.79 34.16ZM24.79 37.52H22.11V35.28H24.79V37.52Z" fill="#F0C419"/>
<path fill-rule="evenodd" clip-rule="evenodd" d="M43.55 44.8L42.21 43.68V50.4H44.89V43.68L43.55 44.8ZM22.11 43.68V50.4H24.79V43.68L23.45 44.8L22.11 43.68ZM23.45 34.16C23.6277 34.16 23.7981 34.101 23.9238 33.996C24.0494 33.891 24.12 33.7485 24.12 33.6C24.12 33.4515 24.0494 33.3091 23.9238 33.204C23.7981 33.099 23.6277 33.04 23.45 33.04C23.2723 33.04 23.1019 33.099 22.9762 33.204C22.8506 33.3091 22.78 33.4515 22.78 33.6C22.78 33.7485 22.8506 33.891 22.9762 33.996C23.1019 34.101 23.2723 34.16 23.45 34.16ZM23.45 31.36C23.6277 31.36 23.7981 31.301 23.9238 31.196C24.0494 31.091 24.12 30.9485 24.12 30.8C24.12 30.6515 24.0494 30.5091 23.9238 30.404C23.7981 30.299 23.6277 30.24 23.45 30.24C23.2723 30.24 23.1019 30.299 22.9762 30.404C22.8506 30.5091 22.78 30.6515 22.78 30.8C22.78 30.9485 22.8506 31.091 22.9762 31.196C23.1019 31.301 23.2723 31.36 23.45 31.36ZM23.45 28.56C23.6277 28.56 23.7981 28.501 23.9238 28.396C24.0494 28.291 24.12 28.1485 24.12 28C24.12 27.8515 24.0494 27.7091 23.9238 27.604C23.7981 27.499 23.6277 27.44 23.45 27.44C23.2723 27.44 23.1019 27.499 22.9762 27.604C22.8506 27.7091 22.78 27.8515 22.78 28C22.78 28.1485 22.8506 28.291 22.9762 28.396C23.1019 28.501 23.2723 28.56 23.45 28.56ZM23.45 25.76C23.6277 25.76 23.7981 25.701 23.9238 25.596C24.0494 25.491 24.12 25.3485 24.12 25.2C24.12 25.0515 24.0494 24.9091 23.9238 24.804C23.7981 24.699 23.6277 24.64 23.45 24.64C23.2723 24.64 23.1019 24.699 22.9762 24.804C22.8506 24.9091 22.78 25.0515 22.78 25.2C22.78 25.3485 22.8506 25.491 22.9762 25.596C23.1019 25.701 23.2723 25.76 23.45 25.76ZM43.55 34.16C43.7277 34.16 43.8981 34.101 44.0238 33.996C44.1494 33.891 44.22 33.7485 44.22 33.6C44.22 33.4515 44.1494 33.3091 44.0238 33.204C43.8981 33.099 43.7277 33.04 43.55 33.04C43.3723 33.04 43.2019 33.099 43.0762 33.204C42.9506 33.3091 42.88 33.4515 42.88 33.6C42.88 33.7485 42.9506 33.891 43.0762 33.996C43.2019 34.101 43.3723 34.16 43.55 34.16ZM43.55 31.36C43.7277 31.36 43.8981 31.301 44.0238 31.196C44.1494 31.091 44.22 30.9485 44.22 30.8C44.22 30.6515 44.1494 30.5091 44.0238 30.404C43.8981 30.299 43.7277 30.24 43.55 30.24C43.3723 30.24 43.2019 30.299 43.0762 30.404C42.9506 30.5091 42.88 30.6515 42.88 30.8C42.88 30.9485 42.9506 31.091 43.0762 31.196C43.2019 31.301 43.3723 31.36 43.55 31.36ZM43.55 28.56C43.7277 28.56 43.8981 28.501 44.0238 28.396C44.1494 28.291 44.22 28.1485 44.22 28C44.22 27.8515 44.1494 27.7091 44.0238 27.604C43.8981 27.499 43.7277 27.44 43.55 27.44C43.3723 27.44 43.2019 27.499 43.0762 27.604C42.9506 27.7091 42.88 27.8515 42.88 28C42.88 28.1485 42.9506 28.291 43.0762 28.396C43.2019 28.501 43.3723 28.56 43.55 28.56ZM43.55 25.76C43.7277 25.76 43.8981 25.701 44.0238 25.596C44.1494 25.491 44.22 25.3485 44.22 25.2C44.22 25.0515 44.1494 24.9091 44.0238 24.804C43.8981 24.699 43.7277 24.64 43.55 24.64C43.3723 24.64 43.2019 24.699 43.0762 24.804C42.9506 24.9091 42.88 25.0515 42.88 25.2C42.88 25.3485 42.9506 25.491 43.0762 25.596C43.2019 25.701 43.3723 25.76 43.55 25.76ZM23.45 36.96C23.6277 36.96 23.7981 36.901 23.9238 36.796C24.0494 36.691 24.12 36.5485 24.12 36.4C24.12 36.2515 24.0494 36.1091 23.9238 36.004C23.7981 35.899 23.6277 35.84 23.45 35.84C23.2723 35.84 23.1019 35.899 22.9762 36.004C22.8506 36.1091 22.78 36.2515 22.78 36.4C22.78 36.5485 22.8506 36.691 22.9762 36.796C23.1019 36.901 23.2723 36.96 23.45 36.96ZM43.55 36.96C43.7277 36.96 43.8981 36.901 44.0238 36.796C44.1494 36.691 44.22 36.5485 44.22 36.4C44.22 36.2515 44.1494 36.1091 44.0238 36.004C43.8981 35.899 43.7277 35.84 43.55 35.84C43.3723 35.84 43.2019 35.899 43.0762 36.004C42.9506 36.1091 42.88 36.2515 42.88 36.4C42.88 36.5485 42.9506 36.691 43.0762 36.796C43.2019 36.901 43.3723 36.96 43.55 36.96Z" fill="#90241D"/>
<path fill-rule="evenodd" clip-rule="evenodd" d="M24.79 35.28V37.52H22.11L21.1626 38.3118C21.4052 38.5146 21.7402 38.64 22.11 38.64H24.79C25.1454 38.64 25.4862 38.522 25.7375 38.312C25.9888 38.1019 26.13 37.817 26.13 37.52V35.28C26.13 34.9709 25.9799 34.6909 25.7374 34.4882L24.79 35.28Z" fill="#FCF062"/>
<path fill-rule="evenodd" clip-rule="evenodd" d="M44.89 34.16H42.21C41.8546 34.16 41.5138 34.278 41.2625 34.488C41.0112 34.6981 40.87 34.983 40.87 35.28V37.52C40.87 37.817 41.0112 38.1019 41.2625 38.312C41.5138 38.522 41.8546 38.64 42.21 38.64H44.89C45.2454 38.64 45.5862 38.522 45.8375 38.312C46.0888 38.1019 46.23 37.817 46.23 37.52V35.28C46.23 34.983 46.0888 34.6981 45.8375 34.488C45.5862 34.278 45.2454 34.16 44.89 34.16ZM44.89 37.52H42.21V35.28H44.89V37.52Z" fill="#F0C419"/>
<path fill-rule="evenodd" clip-rule="evenodd" d="M44.89 35.28V37.52H42.21L41.2626 38.3118C41.5052 38.5146 41.8402 38.64 42.21 38.64H44.89C45.2454 38.64 45.5862 38.522 45.8375 38.312C46.0888 38.1019 46.23 37.817 46.23 37.52V35.28C46.23 34.9709 46.0799 34.6909 45.8374 34.4882L44.89 35.28Z" fill="#FCF062"/>
</svg>