<svg width="44" height="46" viewBox="0 0 44 46" fill="none" xmlns="http://www.w3.org/2000/svg">
<path d="M12.1318 34.0757C13.9561 35.7711 15.6165 37.557 17.1009 39.4205C18.3683 41.173 18.8966 42.3614 19.8229 44.473C20.3909 45.6396 20.9043 45.9878 22.0081 45.9878C23.2109 45.9878 23.7566 45.3955 24.1782 44.4794C25.0537 42.4852 25.7407 40.9633 26.8245 39.5253C28.9513 36.749 31.5941 34.2819 34.1908 31.9108C34.8937 31.2398 39.4388 27.3303 41.485 24.2455C41.485 24.2455 43.9998 20.8569 43.9998 16.1244C43.9998 11.6977 41.5197 8.62744 41.5197 8.62744L34.3791 10.022L30.0427 18.351L28.9699 19.4995L28.7554 19.7075L28.4701 19.968L27.9692 20.384L27.2535 20.9058L23.392 23.2L13.7378 27.2651L12.1318 34.0757Z" fill="#34A853"/>
<path d="M2.16769 23.6758C4.52393 27.6006 9.06762 31.0507 12.1418 34.0785L28.4701 19.9734C28.4701 19.9734 26.1697 22.1673 21.9969 22.1673C17.3489 22.1673 13.5939 19.4606 13.5939 16.0476C13.5939 13.7071 15.5248 12.0992 15.5248 12.0992L4.44074 14.2651L2.16769 23.6757V23.6758Z" fill="#FBBC04"/>
<path d="M28.6524 0.725345C34.0754 2.00044 38.7171 4.67733 41.5247 8.62469L28.4751 19.9653C28.4751 19.9653 30.4059 18.3283 30.4059 16.0024C30.4059 12.5099 26.3732 9.90078 22.0167 9.90078C17.897 9.90078 15.531 12.0911 15.531 12.0911V4.94669L28.6524 0.72522V0.725345Z" fill="#4285F4"/>
<path d="M5.15881 5.73622C8.3978 2.91016 14.0972 0 21.9546 0C25.7668 0 28.6388 0.729859 28.6388 0.729859L15.5186 12.0974H6.22272L5.15881 5.73634V5.73622Z" fill="#1A73E8"/>
<path d="M2.16769 23.6758C2.16769 23.6758 0 20.5802 0 16.0955C0 11.8568 2.25947 8.15177 5.15883 5.73621L15.526 12.0984L2.16769 23.6758Z" fill="#EA4335"/>
</svg>